<?xml version="1.0" standalone="no"?>
<!DOCTYPE svg PUBLIC "-//W3C//DTD SVG 20010904//EN"
 "http://www.w3.org/TR/2001/REC-SVG-20010904/DTD/svg10.dtd">
<svg version="1.0" xmlns="http://www.w3.org/2000/svg"
 width="701.000000pt" height="211.000000pt" viewBox="0 0 701.000000 211.000000"
 preserveAspectRatio="xMidYMid meet">

<g transform="translate(0.000000,211.000000) scale(0.100000,-0.100000)"
fill="#0d70b2" stroke="none">
<path d="M3172 2099 c-87 -13 -214 -61 -286 -109 -76 -49 -183 -157 -229 -230
-61 -99 -88 -181 -115 -355 -6 -44 -14 -10 -66 313 l-59 362 -265 -2 -266 -3
-68 -235 c-67 -230 -110 -396 -123 -474 -4 -22 -10 -35 -15 -30 -7 7 -89 312
-191 707 l-10 37 -268 0 -267 0 -38 -232 c-21 -128 -70 -433 -110 -678 l-72
-445 -194 -67 c-236 -81 -451 -160 -448 -163 2 -2 140 35 307 81 l304 84 258
0 c287 0 269 -5 269 73 0 23 4 48 9 55 4 7 58 26 120 42 l112 28 8 -21 c5 -12
19 -57 31 -100 l23 -77 153 0 153 0 47 147 c25 82 51 153 56 158 5 6 49 19 98
31 80 19 90 19 90 5 0 -9 7 -81 15 -161 8 -80 15 -153 15 -162 0 -17 19 -18
251 -18 l251 0 -6 28 c-8 34 -66 397 -66 408 0 4 17 -28 39 -72 98 -201 266
-345 472 -401 71 -20 291 -24 364 -7 l40 10 59 172 c32 95 60 171 62 169 2 -2
-5 -68 -16 -147 -11 -79 -20 -148 -20 -152 0 -5 107 -7 238 -6 l237 3 33 360
c19 198 36 370 38 383 8 40 20 23 33 -45 10 -55 185 -620 196 -631 5 -5 275
107 339 141 l61 32 28 90 c40 131 115 385 122 420 6 26 8 28 15 10 4 -11 15
-111 25 -222 10 -112 21 -203 25 -203 4 0 80 36 169 80 170 85 235 132 244
178 3 15 -6 96 -20 180 -13 85 -23 156 -21 158 10 9 256 24 413 24 230 0 330
-17 383 -63 121 -109 -290 -347 -1156 -669 -217 -80 -1018 -350 -1080 -363
-18 -4 -31 -9 -29 -12 8 -7 891 222 1089 283 14 4 18 -6 24 -66 l7 -70 250 0
250 0 -6 28 c-24 124 -39 244 -31 251 5 4 124 47 266 94 675 227 1094 419
1232 567 99 106 42 174 -179 211 -115 20 -606 17 -850 -5 -199 -17 -528 -53
-581 -62 l-31 -6 -27 164 c-14 90 -26 167 -26 171 0 4 -120 6 -266 5 l-267 -3
-54 -185 c-29 -102 -58 -201 -63 -221 -10 -35 -12 -36 -67 -43 -31 -4 -67 -9
-78 -12 -20 -5 -25 8 -79 213 -31 120 -59 226 -62 236 -5 16 -27 17 -273 17
l-267 0 -48 -302 c-27 -167 -49 -304 -50 -305 -1 -1 -130 -29 -286 -62 -157
-33 -298 -63 -314 -67 l-29 -7 7 53 c14 104 62 179 146 224 104 57 227 44 348
-34 35 -22 65 -40 67 -40 3 0 5 115 5 255 l0 255 -24 10 c-92 35 -325 56 -434
39z m1384 -626 c-3 -16 -8 -46 -12 -68 -9 -61 -15 -78 -24 -69 -8 9 -40 122
-40 142 0 11 21 19 58 21 21 1 23 -3 18 -26z m-3239 -105 c7 -40 37 -154 67
-253 30 -99 54 -180 53 -181 -14 -7 -192 -52 -195 -49 -5 5 35 488 44 533 8
41 19 23 31 -50z m778 -80 c8 -78 15 -150 15 -159 0 -11 -20 -20 -67 -31 -38
-9 -70 -15 -72 -13 -2 2 15 64 38 137 22 73 46 153 52 177 5 23 13 41 15 38 3
-3 12 -70 19 -149z m1560 -9 c-14 -82 -29 -98 -132 -150 -80 -40 -173 -49
-257 -25 -45 13 -70 29 -114 73 l-57 56 285 58 c157 32 285 58 286 58 1 1 -4
-31 -11 -70z"/>
<path d="M2890 154 l0 -146 106 4 c97 3 107 5 125 27 26 32 24 70 -6 101 -23
24 -24 28 -10 40 25 21 19 75 -11 99 -23 18 -41 21 -115 21 l-89 0 0 -146z
m158 84 c17 -17 15 -45 -4 -52 -9 -3 -33 -6 -55 -6 -38 0 -39 1 -39 35 0 35 1
35 43 35 24 0 48 -5 55 -12z m26 -131 c16 -27 -17 -47 -76 -47 l-48 0 0 35 0
36 56 -3 c42 -2 60 -8 68 -21z"/>
<path d="M3180 195 c0 -152 22 -187 121 -188 103 -2 129 36 129 188 l0 105
-30 0 -30 0 0 -100 c0 -87 -3 -103 -20 -120 -11 -11 -31 -20 -45 -20 -14 0
-34 9 -45 20 -17 17 -20 33 -20 120 l0 100 -30 0 -30 0 0 -105z"/>
<path d="M3506 279 c-19 -15 -26 -30 -26 -55 0 -55 14 -71 85 -94 57 -19 66
-25 63 -44 -4 -28 -55 -33 -98 -11 -30 15 -33 15 -46 -2 -7 -10 -14 -21 -14
-25 0 -17 66 -40 117 -40 72 -1 103 26 103 89 0 50 -16 64 -99 89 -44 13 -52
18 -49 37 4 28 45 34 85 13 27 -13 30 -13 41 5 17 27 15 34 -13 47 -43 20
-119 15 -149 -9z"/>
<path d="M3740 155 l0 -145 30 0 30 0 0 145 0 145 -30 0 -30 0 0 -145z"/>
<path d="M3860 155 l0 -145 30 0 29 0 3 90 3 90 68 -90 c59 -77 73 -90 98 -90
l29 0 0 145 0 145 -30 0 -30 0 0 -85 c0 -47 -4 -85 -8 -85 -5 0 -37 38 -73 85
-53 71 -68 85 -91 85 l-28 0 0 -145z"/>
<path d="M4180 155 l0 -145 110 0 110 0 0 25 c0 25 -1 25 -80 25 l-80 0 0 35
0 35 70 0 c68 0 70 1 70 25 0 24 -2 25 -70 25 l-70 0 0 35 0 35 80 0 c79 0 80
0 80 25 l0 25 -110 0 -110 0 0 -145z"/>
<path d="M4465 275 c-32 -31 -34 -86 -4 -114 11 -10 40 -24 64 -30 54 -14 81
-37 64 -57 -15 -18 -63 -18 -98 1 -26 13 -30 13 -46 -6 -18 -19 -18 -20 1 -34
25 -19 94 -33 132 -27 43 6 76 44 76 89 0 43 -27 68 -90 84 -48 12 -69 31 -60
54 7 19 48 19 84 1 25 -13 28 -12 45 10 17 23 17 24 -12 39 -17 8 -53 15 -81
15 -41 0 -56 -5 -75 -25z"/>
<path d="M4721 276 c-31 -33 -31 -93 -2 -117 12 -10 47 -25 77 -34 47 -14 55
-19 52 -38 -4 -29 -54 -35 -99 -11 -31 15 -33 15 -46 -2 -7 -10 -13 -21 -13
-26 0 -16 63 -39 111 -40 68 -2 103 24 107 80 4 49 -19 74 -85 92 -56 16 -78
36 -62 56 14 17 49 18 85 2 23 -11 28 -10 40 7 8 10 14 22 14 25 0 15 -54 30
-104 30 -43 0 -57 -5 -75 -24z"/>
<path d="M5030 270 c0 -29 2 -30 45 -30 l45 0 0 -115 0 -115 30 0 30 0 0 115
0 115 45 0 c43 0 45 1 45 30 l0 30 -120 0 -120 0 0 -30z"/>
<path d="M5310 155 l0 -145 110 0 110 0 0 25 c0 25 -1 25 -80 25 l-80 0 0 35
0 35 70 0 c68 0 70 1 70 25 0 24 -2 25 -70 25 l-70 0 0 35 0 35 80 0 c79 0 80
0 80 25 l0 25 -110 0 -110 0 0 -145z"/>
<path d="M5580 155 l0 -145 105 0 105 0 0 25 c0 24 -2 25 -75 25 l-75 0 0 120
0 120 -30 0 -30 0 0 -145z"/>
<path d="M5820 155 l0 -145 110 0 110 0 0 25 c0 25 -1 25 -80 25 l-80 0 0 35
0 35 70 0 c68 0 70 1 70 25 0 24 -2 25 -70 25 l-70 0 0 35 0 35 80 0 c79 0 80
0 80 25 l0 25 -110 0 -110 0 0 -145z"/>
<path d="M6119 263 c-87 -82 -54 -222 59 -253 48 -12 106 -1 142 28 22 17 22
18 2 35 -19 17 -22 17 -51 3 -58 -30 -107 -14 -131 43 -15 38 -7 75 25 107 27
27 63 31 104 9 26 -13 30 -13 47 6 18 20 18 21 -5 40 -17 14 -39 19 -87 19
-61 0 -67 -2 -105 -37z"/>
<path d="M6423 280 c-48 -29 -67 -65 -67 -126 0 -57 17 -91 66 -127 38 -29
123 -28 170 1 89 55 91 198 3 252 -43 27 -128 27 -172 0z m121 -40 c59 -22 71
-119 19 -160 -90 -71 -196 59 -114 141 31 31 53 35 95 19z"/>
<path d="M6710 155 l0 -145 30 0 29 0 3 92 3 91 38 -56 c20 -31 39 -57 41 -57
2 0 21 26 42 57 l39 58 3 -93 3 -92 29 0 30 0 0 145 0 145 -34 0 c-32 0 -38
-5 -72 -60 -20 -33 -40 -58 -44 -55 -4 2 -22 29 -41 60 -29 49 -37 55 -66 55
l-33 0 0 -145z"/>
</g>
</svg>
